<svg width="61" height="59" viewBox="0 0 61 59" fill="none" xmlns="http://www.w3.org/2000/svg">
<path d="M11 59L29 42V32L11 49V59Z" fill="#529050"/>
<path d="M11 0L29 17V27L11 10V0Z" fill="#529050"/>
<path d="M61 11L43 28L33 28L51 11L61 11Z" fill="#529050"/>
<path d="M28 28L10 11L4.76647e-07 11L18 28L28 28Z" fill="#529050"/>
<path d="M0 48L18 31L28 31L10 48L0 48Z" fill="#529050"/>
<path d="M61 48L43 31L33 31L51 48L61 48Z" fill="#529050"/>
<path d="M50 59L32 42V32L50 48.5V59Z" fill="#529050"/>
<path d="M50 0L32 17V27L50 10V0Z" fill="#529050"/>
</svg>
